<svg width="148" height="148" viewBox="0 0 148 148" fill="none" xmlns="http://www.w3.org/2000/svg">
<path d="M2 2H18V18H2V2Z" fill="#1D222C"/>
<path d="M2 2V1.5H1.5V2H2ZM18 2H18.5V1.5H18V2ZM18 18V18.5H18.5V18H18ZM2 18H1.5V18.5H2V18ZM2 2.5H18V1.5H2V2.5ZM17.5 2V18H18.5V2H17.5ZM18 17.5H2V18.5H18V17.5ZM2.5 18V2H1.5V18H2.5Z" fill="#2D3038"/>
<path d="M2 18H18V34H2V18Z" fill="#1D222C"/>
<path d="M2 18V17.5H1.5V18H2ZM18 18H18.5V17.5H18V18ZM18 34V34.5H18.5V34H18ZM2 34H1.5V34.5H2V34ZM2 18.5H18V17.5H2V18.5ZM17.5 18V34H18.5V18H17.5ZM18 33.5H2V34.5H18V33.5ZM2.5 34V18H1.5V34H2.5Z" fill="#2D3038"/>
<path d="M2 34H18V50H2V34Z" fill="#1D222C"/>
<path d="M2 34V33.5H1.5V34H2ZM18 34H18.5V33.5H18V34ZM18 50V50.5H18.5V50H18ZM2 50H1.5V50.5H2V50ZM2 34.5H18V33.5H2V34.5ZM17.5 34V50H18.5V34H17.5ZM18 49.5H2V50.5H18V49.5ZM2.5 50V34H1.5V50H2.5Z" fill="#2D3038"/>
<path d="M2 50H18V66H2V50Z" fill="#1D222C"/>
<path d="M2 50V49.5H1.5V50H2ZM18 50H18.5V49.5H18V50ZM18 66V66.5H18.5V66H18ZM2 66H1.5V66.5H2V66ZM2 50.5H18V49.5H2V50.5ZM17.5 50V66H18.5V50H17.5ZM18 65.5H2V66.5H18V65.5ZM2.5 66V50H1.5V66H2.5Z" fill="#2D3038"/>
<path d="M2 66H18V82H2V66Z" fill="#1D222C"/>
<path d="M2 66V65.5H1.5V66H2ZM18 66H18.5V65.5H18V66ZM18 82V82.5H18.5V82H18ZM2 82H1.5V82.5H2V82ZM2 66.5H18V65.5H2V66.5ZM17.5 66V82H18.5V66H17.5ZM18 81.5H2V82.5H18V81.5ZM2.5 82V66H1.5V82H2.5Z" fill="#2D3038"/>
<path d="M2 82H18V98H2V82Z" fill="#1D222C"/>
<path d="M2 82V81.5H1.5V82H2ZM18 82H18.5V81.5H18V82ZM18 98V98.5H18.5V98H18ZM2 98H1.5V98.5H2V98ZM2 82.5H18V81.5H2V82.5ZM17.5 82V98H18.5V82H17.5ZM18 97.5H2V98.5H18V97.5ZM2.5 98V82H1.5V98H2.5Z" fill="#2D3038"/>
<path d="M2 98H18V114H2V98Z" fill="#1D222C"/>
<path d="M2 98V97.5H1.5V98H2ZM18 98H18.5V97.5H18V98ZM18 114V114.5H18.5V114H18ZM2 114H1.5V114.5H2V114ZM2 98.5H18V97.5H2V98.5ZM17.5 98V114H18.5V98H17.5ZM18 113.5H2V114.5H18V113.5ZM2.5 114V98H1.5V114H2.5Z" fill="#2D3038"/>
<path d="M2 114H18V130H2V114Z" fill="#1D222C"/>
<path d="M2 114V113.5H1.5V114H2ZM18 114H18.5V113.5H18V114ZM18 130V130.5H18.5V130H18ZM2 130H1.5V130.5H2V130ZM2 114.5H18V113.5H2V114.5ZM17.5 114V130H18.5V114H17.5ZM18 129.5H2V130.5H18V129.5ZM2.5 130V114H1.5V130H2.5Z" fill="#2D3038"/>
<path d="M2 130H18V146H2V130Z" fill="#1D222C"/>
<path d="M2 130V129.5H1.5V130H2ZM18 130H18.5V129.5H18V130ZM18 146V146.5H18.5V146H18ZM2 146H1.5V146.5H2V146ZM2 130.5H18V129.5H2V130.5ZM17.5 130V146H18.5V130H17.5ZM18 145.5H2V146.5H18V145.5ZM2.5 146V130H1.5V146H2.5Z" fill="#2D3038"/>
<path d="M18 2H34V18H18V2Z" fill="#1D222C"/>
<path d="M18 2V1.5H17.5V2H18ZM34 2H34.5V1.5H34V2ZM34 18V18.5H34.5V18H34ZM18 18H17.5V18.5H18V18ZM18 2.5H34V1.5H18V2.5ZM33.5 2V18H34.5V2H33.5ZM34 17.5H18V18.5H34V17.5ZM18.5 18V2H17.5V18H18.5Z" fill="#2D3038"/>
<path d="M18 18H34V34H18V18Z" fill="#1D222C"/>
<path d="M18 18V17.5H17.5V18H18ZM34 18H34.5V17.5H34V18ZM34 34V34.5H34.5V34H34ZM18 34H17.5V34.5H18V34ZM18 18.5H34V17.5H18V18.5ZM33.5 18V34H34.5V18H33.5ZM34 33.5H18V34.5H34V33.5ZM18.5 34V18H17.5V34H18.5Z" fill="#2D3038"/>
<path d="M18 34H34V50H18V34Z" fill="#1D222C"/>
<path d="M18 34V33.5H17.5V34H18ZM34 34H34.5V33.5H34V34ZM34 50V50.5H34.5V50H34ZM18 50H17.5V50.5H18V50ZM18 34.5H34V33.5H18V34.5ZM33.5 34V50H34.5V34H33.5ZM34 49.5H18V50.5H34V49.5ZM18.5 50V34H17.5V50H18.5Z" fill="#2D3038"/>
<path d="M18 50H34V66H18V50Z" fill="#1D222C"/>
<path d="M18 50V49.5H17.5V50H18ZM34 50H34.5V49.5H34V50ZM34 66V66.5H34.5V66H34ZM18 66H17.5V66.5H18V66ZM18 50.5H34V49.5H18V50.5ZM33.5 50V66H34.5V50H33.5ZM34 65.5H18V66.5H34V65.5ZM18.5 66V50H17.5V66H18.5Z" fill="#2D3038"/>
<path d="M18 66H34V82H18V66Z" fill="#1D222C"/>
<path d="M18 66V65.5H17.5V66H18ZM34 66H34.5V65.5H34V66ZM34 82V82.5H34.5V82H34ZM18 82H17.5V82.5H18V82ZM18 66.5H34V65.5H18V66.5ZM33.5 66V82H34.5V66H33.5ZM34 81.5H18V82.5H34V81.5ZM18.5 82V66H17.5V82H18.5Z" fill="#2D3038"/>
<path d="M18 82H34V98H18V82Z" fill="#1D222C"/>
<path d="M18 82V81.5H17.5V82H18ZM34 82H34.5V81.5H34V82ZM34 98V98.5H34.5V98H34ZM18 98H17.5V98.5H18V98ZM18 82.5H34V81.5H18V82.5ZM33.5 82V98H34.5V82H33.5ZM34 97.5H18V98.5H34V97.5ZM18.5 98V82H17.5V98H18.5Z" fill="#2D3038"/>
<path d="M18 98H34V114H18V98Z" fill="#1D222C"/>
<path d="M18 98V97.5H17.5V98H18ZM34 98H34.5V97.5H34V98ZM34 114V114.5H34.5V114H34ZM18 114H17.5V114.5H18V114ZM18 98.5H34V97.5H18V98.5ZM33.5 98V114H34.5V98H33.5ZM34 113.5H18V114.5H34V113.5ZM18.5 114V98H17.5V114H18.5Z" fill="#2D3038"/>
<path d="M18 114H34V130H18V114Z" fill="#1D222C"/>
<path d="M18 114V113.5H17.5V114H18ZM34 114H34.5V113.5H34V114ZM34 130V130.5H34.5V130H34ZM18 130H17.5V130.5H18V130ZM18 114.5H34V113.5H18V114.5ZM33.5 114V130H34.5V114H33.5ZM34 129.5H18V130.5H34V129.5ZM18.5 130V114H17.5V130H18.5Z" fill="#2D3038"/>
<path d="M18 130H34V146H18V130Z" fill="#1D222C"/>
<path d="M18 130V129.5H17.5V130H18ZM34 130H34.5V129.5H34V130ZM34 146V146.5H34.5V146H34ZM18 146H17.5V146.5H18V146ZM18 130.5H34V129.5H18V130.5ZM33.5 130V146H34.5V130H33.5ZM34 145.5H18V146.5H34V145.5ZM18.5 146V130H17.5V146H18.5Z" fill="#2D3038"/>
<path d="M34 2H50V18H34V2Z" fill="#1D222C"/>
<path d="M34 2V1.5H33.5V2H34ZM50 2H50.5V1.5H50V2ZM50 18V18.5H50.5V18H50ZM34 18H33.5V18.5H34V18ZM34 2.5H50V1.5H34V2.5ZM49.5 2V18H50.5V2H49.5ZM50 17.5H34V18.5H50V17.5ZM34.5 18V2H33.5V18H34.5Z" fill="#2D3038"/>
<path d="M34 18H50V34H34V18Z" fill="#1D222C"/>
<path d="M34 18V17.5H33.5V18H34ZM50 18H50.5V17.5H50V18ZM50 34V34.5H50.5V34H50ZM34 34H33.5V34.5H34V34ZM34 18.5H50V17.5H34V18.5ZM49.5 18V34H50.5V18H49.5ZM50 33.5H34V34.5H50V33.5ZM34.5 34V18H33.5V34H34.5Z" fill="#2D3038"/>
<path d="M34 34H50V50H34V34Z" fill="#1D222C"/>
<path d="M34 34V33.5H33.5V34H34ZM50 34H50.5V33.5H50V34ZM50 50V50.5H50.5V50H50ZM34 50H33.5V50.5H34V50ZM34 34.5H50V33.5H34V34.5ZM49.5 34V50H50.5V34H49.5ZM50 49.5H34V50.5H50V49.5ZM34.5 50V34H33.5V50H34.5Z" fill="#2D3038"/>
<path d="M34 50H50V66H34V50Z" fill="#1D222C"/>
<path d="M34 50V49.5H33.5V50H34ZM50 50H50.5V49.5H50V50ZM50 66V66.5H50.5V66H50ZM34 66H33.5V66.5H34V66ZM34 50.5H50V49.5H34V50.5ZM49.5 50V66H50.5V50H49.5ZM50 65.5H34V66.5H50V65.5ZM34.5 66V50H33.5V66H34.5Z" fill="#2D3038"/>
<path d="M34 66H50V82H34V66Z" fill="#1D222C"/>
<path d="M34 66V65.5H33.5V66H34ZM50 66H50.5V65.5H50V66ZM50 82V82.5H50.5V82H50ZM34 82H33.5V82.5H34V82ZM34 66.5H50V65.5H34V66.5ZM49.5 66V82H50.5V66H49.5ZM50 81.5H34V82.5H50V81.5ZM34.5 82V66H33.5V82H34.5Z" fill="#2D3038"/>
<path d="M34 82H50V98H34V82Z" fill="#1D222C"/>
<path d="M34 82V81.5H33.5V82H34ZM50 82H50.5V81.5H50V82ZM50 98V98.5H50.5V98H50ZM34 98H33.5V98.5H34V98ZM34 82.5H50V81.5H34V82.5ZM49.5 82V98H50.5V82H49.5ZM50 97.5H34V98.5H50V97.5ZM34.5 98V82H33.5V98H34.5Z" fill="#2D3038"/>
<path d="M34 98H50V114H34V98Z" fill="#1D222C"/>
<path d="M34 98V97.5H33.5V98H34ZM50 98H50.5V97.5H50V98ZM50 114V114.5H50.5V114H50ZM34 114H33.5V114.5H34V114ZM34 98.5H50V97.5H34V98.5ZM49.5 98V114H50.5V98H49.5ZM50 113.5H34V114.5H50V113.5ZM34.5 114V98H33.5V114H34.5Z" fill="#2D3038"/>
<path d="M34 114H50V130H34V114Z" fill="#1D222C"/>
<path d="M34 114V113.5H33.5V114H34ZM50 114H50.5V113.5H50V114ZM50 130V130.5H50.5V130H50ZM34 130H33.5V130.5H34V130ZM34 114.5H50V113.5H34V114.5ZM49.5 114V130H50.5V114H49.5ZM50 129.5H34V130.5H50V129.5ZM34.5 130V114H33.5V130H34.5Z" fill="#2D3038"/>
<path d="M34 130H50V146H34V130Z" fill="#1D222C"/>
<path d="M34 130V129.5H33.5V130H34ZM50 130H50.5V129.5H50V130ZM50 146V146.5H50.5V146H50ZM34 146H33.5V146.5H34V146ZM34 130.5H50V129.5H34V130.5ZM49.5 130V146H50.5V130H49.5ZM50 145.5H34V146.5H50V145.5ZM34.5 146V130H33.5V146H34.5Z" fill="#2D3038"/>
<path d="M50 2H66V18H50V2Z" fill="#1D222C"/>
<path d="M50 2V1.5H49.5V2H50ZM66 2H66.5V1.5H66V2ZM66 18V18.5H66.5V18H66ZM50 18H49.5V18.5H50V18ZM50 2.5H66V1.5H50V2.5ZM65.5 2V18H66.5V2H65.5ZM66 17.5H50V18.5H66V17.5ZM50.5 18V2H49.5V18H50.5Z" fill="#2D3038"/>
<path d="M50 18H66V34H50V18Z" fill="#1D222C"/>
<path d="M50 18V17.5H49.5V18H50ZM66 18H66.5V17.5H66V18ZM66 34V34.5H66.5V34H66ZM50 34H49.5V34.5H50V34ZM50 18.5H66V17.5H50V18.5ZM65.5 18V34H66.5V18H65.5ZM66 33.5H50V34.5H66V33.5ZM50.5 34V18H49.5V34H50.5Z" fill="#2D3038"/>
<path d="M50 34H66V50H50V34Z" fill="#1D222C"/>
<path d="M50 34V33.5H49.5V34H50ZM66 34H66.5V33.5H66V34ZM66 50V50.5H66.5V50H66ZM50 50H49.5V50.5H50V50ZM50 34.5H66V33.5H50V34.5ZM65.5 34V50H66.5V34H65.5ZM66 49.5H50V50.5H66V49.5ZM50.5 50V34H49.5V50H50.5Z" fill="#2D3038"/>
<path d="M50 50H66V66H50V50Z" fill="#1D222C"/>
<path d="M50 50V49.5H49.5V50H50ZM66 50H66.5V49.5H66V50ZM66 66V66.5H66.5V66H66ZM50 66H49.5V66.5H50V66ZM50 50.5H66V49.5H50V50.5ZM65.5 50V66H66.5V50H65.5ZM66 65.5H50V66.5H66V65.5ZM50.5 66V50H49.5V66H50.5Z" fill="#2D3038"/>
<path d="M50 66H66V82H50V66Z" fill="#1D222C"/>
<path d="M50 66V65.5H49.5V66H50ZM66 66H66.5V65.5H66V66ZM66 82V82.5H66.5V82H66ZM50 82H49.5V82.5H50V82ZM50 66.5H66V65.5H50V66.5ZM65.5 66V82H66.5V66H65.5ZM66 81.5H50V82.5H66V81.5ZM50.5 82V66H49.5V82H50.5Z" fill="#2D3038"/>
<path d="M50 82H66V98H50V82Z" fill="#1D222C"/>
<path d="M50 82V81.5H49.5V82H50ZM66 82H66.5V81.5H66V82ZM66 98V98.5H66.5V98H66ZM50 98H49.5V98.5H50V98ZM50 82.5H66V81.5H50V82.5ZM65.5 82V98H66.5V82H65.5ZM66 97.5H50V98.5H66V97.5ZM50.5 98V82H49.5V98H50.5Z" fill="#2D3038"/>
<path d="M50 98H66V114H50V98Z" fill="#1D222C"/>
<path d="M50 98V97.5H49.5V98H50ZM66 98H66.5V97.5H66V98ZM66 114V114.5H66.5V114H66ZM50 114H49.5V114.5H50V114ZM50 98.5H66V97.5H50V98.5ZM65.5 98V114H66.5V98H65.5ZM66 113.5H50V114.5H66V113.5ZM50.5 114V98H49.5V114H50.5Z" fill="#2D3038"/>
<path d="M50 114H66V130H50V114Z" fill="#1D222C"/>
<path d="M50 114V113.5H49.5V114H50ZM66 114H66.5V113.5H66V114ZM66 130V130.5H66.5V130H66ZM50 130H49.5V130.5H50V130ZM50 114.5H66V113.5H50V114.5ZM65.5 114V130H66.5V114H65.5ZM66 129.5H50V130.5H66V129.5ZM50.5 130V114H49.5V130H50.5Z" fill="#2D3038"/>
<path d="M50 130H66V146H50V130Z" fill="#1D222C"/>
<path d="M50 130V129.5H49.5V130H50ZM66 130H66.5V129.5H66V130ZM66 146V146.5H66.5V146H66ZM50 146H49.5V146.5H50V146ZM50 130.5H66V129.5H50V130.5ZM65.5 130V146H66.5V130H65.5ZM66 145.5H50V146.5H66V145.5ZM50.5 146V130H49.5V146H50.5Z" fill="#2D3038"/>
<path d="M66 2H82V18H66V2Z" fill="#1D222C"/>
<path d="M66 2V1.5H65.5V2H66ZM82 2H82.5V1.5H82V2ZM82 18V18.5H82.5V18H82ZM66 18H65.5V18.5H66V18ZM66 2.5H82V1.5H66V2.5ZM81.5 2V18H82.5V2H81.5ZM82 17.5H66V18.5H82V17.5ZM66.5 18V2H65.5V18H66.5Z" fill="#2D3038"/>
<path d="M66 18H82V34H66V18Z" fill="#1D222C"/>
<path d="M66 18V17.5H65.5V18H66ZM82 18H82.5V17.5H82V18ZM82 34V34.5H82.5V34H82ZM66 34H65.5V34.5H66V34ZM66 18.5H82V17.5H66V18.5ZM81.5 18V34H82.5V18H81.5ZM82 33.5H66V34.5H82V33.5ZM66.5 34V18H65.5V34H66.5Z" fill="#2D3038"/>
<path d="M66 34H82V50H66V34Z" fill="#1D222C"/>
<path d="M66 34V33.5H65.5V34H66ZM82 34H82.5V33.5H82V34ZM82 50V50.5H82.5V50H82ZM66 50H65.5V50.5H66V50ZM66 34.5H82V33.5H66V34.5ZM81.5 34V50H82.5V34H81.5ZM82 49.5H66V50.5H82V49.5ZM66.5 50V34H65.5V50H66.5Z" fill="#2D3038"/>
<path d="M66 50H82V66H66V50Z" fill="#1D222C"/>
<path d="M66 50V49.5H65.5V50H66ZM82 50H82.5V49.5H82V50ZM82 66V66.5H82.5V66H82ZM66 66H65.5V66.5H66V66ZM66 50.5H82V49.5H66V50.5ZM81.5 50V66H82.5V50H81.5ZM82 65.5H66V66.5H82V65.5ZM66.5 66V50H65.5V66H66.5Z" fill="#2D3038"/>
<path d="M66 66H82V82H66V66Z" fill="#1D222C"/>
<path d="M66 66V65.5H65.5V66H66ZM82 66H82.5V65.5H82V66ZM82 82V82.5H82.5V82H82ZM66 82H65.5V82.5H66V82ZM66 66.5H82V65.5H66V66.5ZM81.5 66V82H82.5V66H81.5ZM82 81.5H66V82.5H82V81.5ZM66.5 82V66H65.5V82H66.5Z" fill="#2D3038"/>
<path d="M66 82H82V98H66V82Z" fill="#1D222C"/>
<path d="M66 82V81.5H65.5V82H66ZM82 82H82.5V81.5H82V82ZM82 98V98.5H82.5V98H82ZM66 98H65.5V98.5H66V98ZM66 82.5H82V81.5H66V82.5ZM81.5 82V98H82.5V82H81.5ZM82 97.5H66V98.5H82V97.5ZM66.5 98V82H65.5V98H66.5Z" fill="#2D3038"/>
<path d="M66 98H82V114H66V98Z" fill="#1D222C"/>
<path d="M66 98V97.5H65.5V98H66ZM82 98H82.5V97.5H82V98ZM82 114V114.5H82.5V114H82ZM66 114H65.5V114.5H66V114ZM66 98.5H82V97.5H66V98.5ZM81.5 98V114H82.5V98H81.5ZM82 113.5H66V114.5H82V113.5ZM66.5 114V98H65.5V114H66.5Z" fill="#2D3038"/>
<path d="M66 114H82V130H66V114Z" fill="#1D222C"/>
<path d="M66 114V113.5H65.5V114H66ZM82 114H82.5V113.5H82V114ZM82 130V130.5H82.5V130H82ZM66 130H65.5V130.5H66V130ZM66 114.5H82V113.5H66V114.5ZM81.5 114V130H82.5V114H81.5ZM82 129.5H66V130.5H82V129.5ZM66.5 130V114H65.5V130H66.5Z" fill="#2D3038"/>
<path d="M66 130H82V146H66V130Z" fill="#1D222C"/>
<path d="M66 130V129.5H65.5V130H66ZM82 130H82.5V129.5H82V130ZM82 146V146.5H82.5V146H82ZM66 146H65.5V146.5H66V146ZM66 130.5H82V129.5H66V130.5ZM81.5 130V146H82.5V130H81.5ZM82 145.5H66V146.5H82V145.5ZM66.5 146V130H65.5V146H66.5Z" fill="#2D3038"/>
<path d="M82 2H98V18H82V2Z" fill="#1D222C"/>
<path d="M82 2V1.5H81.5V2H82ZM98 2H98.5V1.5H98V2ZM98 18V18.5H98.5V18H98ZM82 18H81.5V18.5H82V18ZM82 2.5H98V1.5H82V2.5ZM97.5 2V18H98.5V2H97.5ZM98 17.5H82V18.5H98V17.5ZM82.5 18V2H81.5V18H82.5Z" fill="#2D3038"/>
<path d="M82 18H98V34H82V18Z" fill="#1D222C"/>
<path d="M82 18V17.5H81.5V18H82ZM98 18H98.5V17.5H98V18ZM98 34V34.5H98.5V34H98ZM82 34H81.5V34.5H82V34ZM82 18.5H98V17.5H82V18.5ZM97.5 18V34H98.5V18H97.5ZM98 33.5H82V34.5H98V33.5ZM82.5 34V18H81.5V34H82.5Z" fill="#2D3038"/>
<path d="M82 34H98V50H82V34Z" fill="#1D222C"/>
<path d="M82 34V33.5H81.5V34H82ZM98 34H98.5V33.5H98V34ZM98 50V50.5H98.5V50H98ZM82 50H81.5V50.5H82V50ZM82 34.5H98V33.5H82V34.5ZM97.5 34V50H98.5V34H97.5ZM98 49.5H82V50.5H98V49.5ZM82.5 50V34H81.5V50H82.5Z" fill="#2D3038"/>
<path d="M82 50H98V66H82V50Z" fill="#1D222C"/>
<path d="M82 50V49.5H81.5V50H82ZM98 50H98.5V49.5H98V50ZM98 66V66.5H98.5V66H98ZM82 66H81.5V66.5H82V66ZM82 50.5H98V49.5H82V50.5ZM97.5 50V66H98.5V50H97.5ZM98 65.5H82V66.5H98V65.5ZM82.5 66V50H81.5V66H82.5Z" fill="#2D3038"/>
<path d="M82 66H98V82H82V66Z" fill="#1D222C"/>
<path d="M82 66V65.5H81.5V66H82ZM98 66H98.5V65.5H98V66ZM98 82V82.5H98.5V82H98ZM82 82H81.5V82.5H82V82ZM82 66.5H98V65.5H82V66.5ZM97.5 66V82H98.5V66H97.5ZM98 81.5H82V82.5H98V81.5ZM82.5 82V66H81.5V82H82.5Z" fill="#2D3038"/>
<path d="M82 82H98V98H82V82Z" fill="#1D222C"/>
<path d="M82 82V81.5H81.5V82H82ZM98 82H98.5V81.5H98V82ZM98 98V98.5H98.5V98H98ZM82 98H81.5V98.5H82V98ZM82 82.5H98V81.5H82V82.5ZM97.5 82V98H98.5V82H97.5ZM98 97.5H82V98.5H98V97.5ZM82.5 98V82H81.5V98H82.5Z" fill="#2D3038"/>
<path d="M82 98H98V114H82V98Z" fill="#1D222C"/>
<path d="M82 98V97.5H81.5V98H82ZM98 98H98.5V97.5H98V98ZM98 114V114.5H98.5V114H98ZM82 114H81.5V114.5H82V114ZM82 98.5H98V97.5H82V98.5ZM97.5 98V114H98.5V98H97.5ZM98 113.5H82V114.5H98V113.5ZM82.5 114V98H81.5V114H82.5Z" fill="#2D3038"/>
<path d="M82 114H98V130H82V114Z" fill="#1D222C"/>
<path d="M82 114V113.5H81.5V114H82ZM98 114H98.5V113.5H98V114ZM98 130V130.5H98.5V130H98ZM82 130H81.5V130.5H82V130ZM82 114.5H98V113.5H82V114.5ZM97.5 114V130H98.5V114H97.5ZM98 129.5H82V130.5H98V129.5ZM82.5 130V114H81.5V130H82.5Z" fill="#2D3038"/>
<path d="M82 130H98V146H82V130Z" fill="#1D222C"/>
<path d="M82 130V129.5H81.5V130H82ZM98 130H98.5V129.5H98V130ZM98 146V146.5H98.5V146H98ZM82 146H81.5V146.5H82V146ZM82 130.5H98V129.5H82V130.5ZM97.5 130V146H98.5V130H97.5ZM98 145.5H82V146.5H98V145.5ZM82.5 146V130H81.5V146H82.5Z" fill="#2D3038"/>
<path d="M98 2H114V18H98V2Z" fill="#1D222C"/>
<path d="M98 2V1.5H97.5V2H98ZM114 2H114.5V1.5H114V2ZM114 18V18.5H114.5V18H114ZM98 18H97.5V18.5H98V18ZM98 2.5H114V1.5H98V2.5ZM113.5 2V18H114.5V2H113.5ZM114 17.5H98V18.5H114V17.5ZM98.5 18V2H97.5V18H98.5Z" fill="#2D3038"/>
<path d="M98 18H114V34H98V18Z" fill="#1D222C"/>
<path d="M98 18V17.5H97.5V18H98ZM114 18H114.5V17.5H114V18ZM114 34V34.5H114.5V34H114ZM98 34H97.5V34.5H98V34ZM98 18.5H114V17.5H98V18.5ZM113.5 18V34H114.5V18H113.5ZM114 33.5H98V34.5H114V33.5ZM98.5 34V18H97.5V34H98.5Z" fill="#2D3038"/>
<path d="M98 34H114V50H98V34Z" fill="#1D222C"/>
<path d="M98 34V33.5H97.5V34H98ZM114 34H114.5V33.5H114V34ZM114 50V50.5H114.5V50H114ZM98 50H97.5V50.5H98V50ZM98 34.5H114V33.5H98V34.5ZM113.5 34V50H114.5V34H113.5ZM114 49.5H98V50.5H114V49.5ZM98.5 50V34H97.5V50H98.5Z" fill="#2D3038"/>
<path d="M98 50H114V66H98V50Z" fill="#1D222C"/>
<path d="M98 50V49.5H97.5V50H98ZM114 50H114.5V49.5H114V50ZM114 66V66.5H114.5V66H114ZM98 66H97.5V66.5H98V66ZM98 50.5H114V49.5H98V50.5ZM113.5 50V66H114.5V50H113.5ZM114 65.5H98V66.5H114V65.5ZM98.5 66V50H97.5V66H98.5Z" fill="#2D3038"/>
<path d="M98 66H114V82H98V66Z" fill="#1D222C"/>
<path d="M98 66V65.5H97.5V66H98ZM114 66H114.5V65.5H114V66ZM114 82V82.5H114.5V82H114ZM98 82H97.5V82.5H98V82ZM98 66.5H114V65.5H98V66.5ZM113.5 66V82H114.5V66H113.5ZM114 81.5H98V82.5H114V81.5ZM98.5 82V66H97.5V82H98.5Z" fill="#2D3038"/>
<path d="M98 82H114V98H98V82Z" fill="#1D222C"/>
<path d="M98 82V81.5H97.5V82H98ZM114 82H114.5V81.5H114V82ZM114 98V98.5H114.5V98H114ZM98 98H97.5V98.5H98V98ZM98 82.5H114V81.5H98V82.5ZM113.5 82V98H114.5V82H113.5ZM114 97.5H98V98.5H114V97.5ZM98.5 98V82H97.5V98H98.5Z" fill="#2D3038"/>
<path d="M98 98H114V114H98V98Z" fill="#1D222C"/>
<path d="M98 98V97.5H97.5V98H98ZM114 98H114.5V97.5H114V98ZM114 114V114.5H114.5V114H114ZM98 114H97.5V114.5H98V114ZM98 98.5H114V97.5H98V98.5ZM113.5 98V114H114.5V98H113.5ZM114 113.5H98V114.5H114V113.5ZM98.5 114V98H97.5V114H98.5Z" fill="#2D3038"/>
<path d="M98 114H114V130H98V114Z" fill="#1D222C"/>
<path d="M98 114V113.5H97.5V114H98ZM114 114H114.5V113.5H114V114ZM114 130V130.5H114.5V130H114ZM98 130H97.5V130.5H98V130ZM98 114.5H114V113.5H98V114.5ZM113.5 114V130H114.5V114H113.5ZM114 129.5H98V130.5H114V129.5ZM98.5 130V114H97.5V130H98.5Z" fill="#2D3038"/>
<path d="M98 130H114V146H98V130Z" fill="#1D222C"/>
<path d="M98 130V129.5H97.5V130H98ZM114 130H114.5V129.5H114V130ZM114 146V146.5H114.5V146H114ZM98 146H97.5V146.5H98V146ZM98 130.5H114V129.5H98V130.5ZM113.5 130V146H114.5V130H113.5ZM114 145.5H98V146.5H114V145.5ZM98.5 146V130H97.5V146H98.5Z" fill="#2D3038"/>
<path d="M114 2H130V18H114V2Z" fill="#1D222C"/>
<path d="M114 2V1.5H113.5V2H114ZM130 2H130.5V1.5H130V2ZM130 18V18.5H130.5V18H130ZM114 18H113.5V18.5H114V18ZM114 2.5H130V1.5H114V2.5ZM129.5 2V18H130.5V2H129.5ZM130 17.5H114V18.5H130V17.5ZM114.5 18V2H113.5V18H114.5Z" fill="#2D3038"/>
<path d="M114 18H130V34H114V18Z" fill="#1D222C"/>
<path d="M114 18V17.5H113.5V18H114ZM130 18H130.5V17.5H130V18ZM130 34V34.5H130.5V34H130ZM114 34H113.5V34.5H114V34ZM114 18.5H130V17.5H114V18.5ZM129.5 18V34H130.5V18H129.5ZM130 33.5H114V34.5H130V33.5ZM114.5 34V18H113.5V34H114.5Z" fill="#2D3038"/>
<path d="M114 34H130V50H114V34Z" fill="#1D222C"/>
<path d="M114 34V33.5H113.5V34H114ZM130 34H130.5V33.5H130V34ZM130 50V50.5H130.5V50H130ZM114 50H113.5V50.5H114V50ZM114 34.5H130V33.5H114V34.5ZM129.5 34V50H130.5V34H129.5ZM130 49.5H114V50.5H130V49.5ZM114.5 50V34H113.5V50H114.5Z" fill="#2D3038"/>
<path d="M114 50H130V66H114V50Z" fill="#1D222C"/>
<path d="M114 50V49.5H113.5V50H114ZM130 50H130.5V49.5H130V50ZM130 66V66.5H130.5V66H130ZM114 66H113.5V66.5H114V66ZM114 50.5H130V49.5H114V50.5ZM129.5 50V66H130.5V50H129.5ZM130 65.5H114V66.5H130V65.5ZM114.5 66V50H113.5V66H114.5Z" fill="#2D3038"/>
<path d="M114 66H130V82H114V66Z" fill="#1D222C"/>
<path d="M114 66V65.5H113.5V66H114ZM130 66H130.5V65.5H130V66ZM130 82V82.5H130.5V82H130ZM114 82H113.5V82.5H114V82ZM114 66.5H130V65.5H114V66.5ZM129.5 66V82H130.5V66H129.5ZM130 81.5H114V82.5H130V81.5ZM114.5 82V66H113.5V82H114.5Z" fill="#2D3038"/>
<path d="M114 82H130V98H114V82Z" fill="#1D222C"/>
<path d="M114 82V81.5H113.5V82H114ZM130 82H130.5V81.5H130V82ZM130 98V98.5H130.5V98H130ZM114 98H113.5V98.5H114V98ZM114 82.5H130V81.5H114V82.5ZM129.5 82V98H130.5V82H129.5ZM130 97.5H114V98.5H130V97.5ZM114.5 98V82H113.5V98H114.5Z" fill="#2D3038"/>
<path d="M114 98H130V114H114V98Z" fill="#1D222C"/>
<path d="M114 98V97.5H113.5V98H114ZM130 98H130.5V97.5H130V98ZM130 114V114.5H130.5V114H130ZM114 114H113.5V114.5H114V114ZM114 98.5H130V97.5H114V98.5ZM129.5 98V114H130.5V98H129.5ZM130 113.5H114V114.5H130V113.5ZM114.5 114V98H113.5V114H114.5Z" fill="#2D3038"/>
<path d="M114 114H130V130H114V114Z" fill="#1D222C"/>
<path d="M114 114V113.5H113.5V114H114ZM130 114H130.5V113.5H130V114ZM130 130V130.5H130.5V130H130ZM114 130H113.5V130.5H114V130ZM114 114.5H130V113.5H114V114.5ZM129.5 114V130H130.5V114H129.5ZM130 129.5H114V130.5H130V129.5ZM114.5 130V114H113.5V130H114.5Z" fill="#2D3038"/>
<path d="M114 130H130V146H114V130Z" fill="#1D222C"/>
<path d="M114 130V129.5H113.5V130H114ZM130 130H130.5V129.5H130V130ZM130 146V146.5H130.5V146H130ZM114 146H113.5V146.5H114V146ZM114 130.5H130V129.5H114V130.5ZM129.5 130V146H130.5V130H129.5ZM130 145.5H114V146.5H130V145.5ZM114.5 146V130H113.5V146H114.5Z" fill="#2D3038"/>
<path d="M130 2H146V18H130V2Z" fill="#1D222C"/>
<path d="M130 2V1.5H129.5V2H130ZM146 2H146.5V1.5H146V2ZM146 18V18.5H146.5V18H146ZM130 18H129.5V18.5H130V18ZM130 2.5H146V1.5H130V2.5ZM145.5 2V18H146.5V2H145.5ZM146 17.5H130V18.5H146V17.5ZM130.5 18V2H129.5V18H130.5Z" fill="#2D3038"/>
<path d="M130 18H146V34H130V18Z" fill="#1D222C"/>
<path d="M130 18V17.5H129.5V18H130ZM146 18H146.5V17.5H146V18ZM146 34V34.5H146.5V34H146ZM130 34H129.5V34.5H130V34ZM130 18.5H146V17.5H130V18.5ZM145.5 18V34H146.5V18H145.5ZM146 33.5H130V34.5H146V33.5ZM130.5 34V18H129.5V34H130.5Z" fill="#2D3038"/>
<path d="M130 34H146V50H130V34Z" fill="#1D222C"/>
<path d="M130 34V33.5H129.5V34H130ZM146 34H146.5V33.5H146V34ZM146 50V50.5H146.5V50H146ZM130 50H129.5V50.5H130V50ZM130 34.5H146V33.5H130V34.5ZM145.5 34V50H146.5V34H145.5ZM146 49.5H130V50.5H146V49.5ZM130.5 50V34H129.5V50H130.5Z" fill="#2D3038"/>
<path d="M130 50H146V66H130V50Z" fill="#1D222C"/>
<path d="M130 50V49.5H129.5V50H130ZM146 50H146.5V49.5H146V50ZM146 66V66.5H146.5V66H146ZM130 66H129.5V66.5H130V66ZM130 50.5H146V49.5H130V50.5ZM145.5 50V66H146.5V50H145.5ZM146 65.5H130V66.5H146V65.5ZM130.5 66V50H129.5V66H130.5Z" fill="#2D3038"/>
<path d="M130 66H146V82H130V66Z" fill="#1D222C"/>
<path d="M130 66V65.5H129.5V66H130ZM146 66H146.5V65.5H146V66ZM146 82V82.5H146.5V82H146ZM130 82H129.5V82.5H130V82ZM130 66.5H146V65.5H130V66.5ZM145.5 66V82H146.5V66H145.5ZM146 81.5H130V82.5H146V81.5ZM130.5 82V66H129.5V82H130.5Z" fill="#2D3038"/>
<path d="M130 82H146V98H130V82Z" fill="#1D222C"/>
<path d="M130 82V81.5H129.5V82H130ZM146 82H146.5V81.5H146V82ZM146 98V98.5H146.5V98H146ZM130 98H129.5V98.5H130V98ZM130 82.5H146V81.5H130V82.5ZM145.5 82V98H146.5V82H145.5ZM146 97.5H130V98.5H146V97.5ZM130.5 98V82H129.5V98H130.5Z" fill="#2D3038"/>
<path d="M130 98H146V114H130V98Z" fill="#1D222C"/>
<path d="M130 98V97.5H129.5V98H130ZM146 98H146.5V97.5H146V98ZM146 114V114.5H146.5V114H146ZM130 114H129.5V114.5H130V114ZM130 98.5H146V97.5H130V98.5ZM145.5 98V114H146.5V98H145.5ZM146 113.5H130V114.5H146V113.5ZM130.5 114V98H129.5V114H130.5Z" fill="#2D3038"/>
<path d="M130 114H146V130H130V114Z" fill="#1D222C"/>
<path d="M130 114V113.5H129.5V114H130ZM146 114H146.5V113.5H146V114ZM146 130V130.5H146.5V130H146ZM130 130H129.5V130.5H130V130ZM130 114.5H146V113.5H130V114.5ZM145.5 114V130H146.5V114H145.5ZM146 129.5H130V130.5H146V129.5ZM130.5 130V114H129.5V130H130.5Z" fill="#2D3038"/>
<path d="M130 130H146V146H130V130Z" fill="#1D222C"/>
<path d="M130 130V129.5H129.5V130H130ZM146 130H146.5V129.5H146V130ZM146 146V146.5H146.5V146H146ZM130 146H129.5V146.5H130V146ZM130 130.5H146V129.5H130V130.5ZM145.5 130V146H146.5V130H145.5ZM146 145.5H130V146.5H146V145.5ZM130.5 146V130H129.5V146H130.5Z" fill="#2D3038"/>
<path d="M98 82H114V98H98V82Z" fill="#F06B97"/>
<path d="M98 82V81.5H97.5V82H98ZM114 82H114.5V81.5H114V82ZM114 98V98.5H114.5V98H114ZM98 98H97.5V98.5H98V98ZM98 82.5H114V81.5H98V82.5ZM113.5 82V98H114.5V82H113.5ZM114 97.5H98V98.5H114V97.5ZM98.5 98V82H97.5V98H98.5Z" fill="#0A0C10"/>
<path d="M114 98H130V114H114V98Z" fill="#F06B97"/>
<path d="M114 98V97.5H113.5V98H114ZM130 98H130.5V97.5H130V98ZM130 114V114.5H130.5V114H130ZM114 114H113.5V114.5H114V114ZM114 98.5H130V97.5H114V98.5ZM129.5 98V114H130.5V98H129.5ZM130 113.5H114V114.5H130V113.5ZM114.5 114V98H113.5V114H114.5Z" fill="#0A0C10"/>
<path d="M114 114H130V130H114V114Z" fill="#F06B97"/>
<path d="M114 114V113.5H113.5V114H114ZM130 114H130.5V113.5H130V114ZM130 130V130.5H130.5V130H130ZM114 130H113.5V130.5H114V130ZM114 114.5H130V113.5H114V114.5ZM129.5 114V130H130.5V114H129.5ZM130 129.5H114V130.5H130V129.5ZM114.5 130V114H113.5V130H114.5Z" fill="#0A0C10"/>
<path d="M98 114H114V130H98V114Z" fill="#F06B97"/>
<path d="M98 114V113.5H97.5V114H98ZM114 114H114.5V113.5H114V114ZM114 130V130.5H114.5V130H114ZM98 130H97.5V130.5H98V130ZM98 114.5H114V113.5H98V114.5ZM113.5 114V130H114.5V114H113.5ZM114 129.5H98V130.5H114V129.5ZM98.5 130V114H97.5V130H98.5Z" fill="#0A0C10"/>
<path d="M82 114H98V130H82V114Z" fill="#F06B97"/>
<path d="M82 114V113.5H81.5V114H82ZM98 114H98.5V113.5H98V114ZM98 130V130.5H98.5V130H98ZM82 130H81.5V130.5H82V130ZM82 114.5H98V113.5H82V114.5ZM97.5 114V130H98.5V114H97.5ZM98 129.5H82V130.5H98V129.5ZM82.5 130V114H81.5V130H82.5Z" fill="#0A0C10"/>
<path d="M66 114H82V130H66V114Z" fill="#F06B97"/>
<path d="M66 114V113.5H65.5V114H66ZM82 114H82.5V113.5H82V114ZM82 130V130.5H82.5V130H82ZM66 130H65.5V130.5H66V130ZM66 114.5H82V113.5H66V114.5ZM81.5 114V130H82.5V114H81.5ZM82 129.5H66V130.5H82V129.5ZM66.5 130V114H65.5V130H66.5Z" fill="#0A0C10"/>
<path d="M66 98H82V114H66V98Z" fill="#F06B97"/>
<path d="M66 98V97.5H65.5V98H66ZM82 98H82.5V97.5H82V98ZM82 114V114.5H82.5V114H82ZM66 114H65.5V114.5H66V114ZM66 98.5H82V97.5H66V98.5ZM81.5 98V114H82.5V98H81.5ZM82 113.5H66V114.5H82V113.5ZM66.5 114V98H65.5V114H66.5Z" fill="#0A0C10"/>
<path d="M66 82H82V98H66V82Z" fill="#F06B97"/>
<path d="M66 82V81.5H65.5V82H66ZM82 82H82.5V81.5H82V82ZM82 98V98.5H82.5V98H82ZM66 98H65.5V98.5H66V98ZM66 82.5H82V81.5H66V82.5ZM81.5 82V98H82.5V82H81.5ZM82 97.5H66V98.5H82V97.5ZM66.5 98V82H65.5V98H66.5Z" fill="#0A0C10"/>
<path d="M66 66H82V82H66V66Z" fill="#F06B97"/>
<path d="M66 66V65.5H65.5V66H66ZM82 66H82.5V65.5H82V66ZM82 82V82.5H82.5V82H82ZM66 82H65.5V82.5H66V82ZM66 66.5H82V65.5H66V66.5ZM81.5 66V82H82.5V66H81.5ZM82 81.5H66V82.5H82V81.5ZM66.5 82V66H65.5V82H66.5Z" fill="#0A0C10"/>
<path d="M66 50H82V66H66V50Z" fill="#F06B97"/>
<path d="M66 50V49.5H65.5V50H66ZM82 50H82.5V49.5H82V50ZM82 66V66.5H82.5V66H82ZM66 66H65.5V66.5H66V66ZM66 50.5H82V49.5H66V50.5ZM81.5 50V66H82.5V50H81.5ZM82 65.5H66V66.5H82V65.5ZM66.5 66V50H65.5V66H66.5Z" fill="#0A0C10"/>
<path d="M50 34H66V50H50V34Z" fill="#F06B97"/>
<path d="M50 34V33.5H49.5V34H50ZM66 34H66.5V33.5H66V34ZM66 50V50.5H66.5V50H66ZM50 50H49.5V50.5H50V50ZM50 34.5H66V33.5H50V34.5ZM65.5 34V50H66.5V34H65.5ZM66 49.5H50V50.5H66V49.5ZM50.5 50V34H49.5V50H50.5Z" fill="#0A0C10"/>
<path d="M82 34H98V50H82V34Z" fill="#F06B97"/>
<path d="M82 34V33.5H81.5V34H82ZM98 34H98.5V33.5H98V34ZM98 50V50.5H98.5V50H98ZM82 50H81.5V50.5H82V50ZM82 34.5H98V33.5H82V34.5ZM97.5 34V50H98.5V34H97.5ZM98 49.5H82V50.5H98V49.5ZM82.5 50V34H81.5V50H82.5Z" fill="#0A0C10"/>
<path d="M18 114H34V130H18V114Z" fill="#F06B97"/>
<path d="M18 114V113.5H17.5V114H18ZM34 114H34.5V113.5H34V114ZM34 130V130.5H34.5V130H34ZM18 130H17.5V130.5H18V130ZM18 114.5H34V113.5H18V114.5ZM33.5 114V130H34.5V114H33.5ZM34 129.5H18V130.5H34V129.5ZM18.5 130V114H17.5V130H18.5Z" fill="#0A0C10"/>
<path d="M18 98H34V114H18V98Z" fill="#F06B97"/>
<path d="M18 98V97.5H17.5V98H18ZM34 98H34.5V97.5H34V98ZM34 114V114.5H34.5V114H34ZM18 114H17.5V114.5H18V114ZM18 98.5H34V97.5H18V98.5ZM33.5 98V114H34.5V98H33.5ZM34 113.5H18V114.5H34V113.5ZM18.5 114V98H17.5V114H18.5Z" fill="#0A0C10"/>
<path d="M34 82H50V98H34V82Z" fill="#F06B97"/>
<path d="M34 82V81.5H33.5V82H34ZM50 82H50.5V81.5H50V82ZM50 98V98.5H50.5V98H50ZM34 98H33.5V98.5H34V98ZM34 82.5H50V81.5H34V82.5ZM49.5 82V98H50.5V82H49.5ZM50 97.5H34V98.5H50V97.5ZM34.5 98V82H33.5V98H34.5Z" fill="#0A0C10"/>
<path d="M50 82H66V98H50V82Z" fill="#F06B97"/>
<path d="M50 82V81.5H49.5V82H50ZM66 82H66.5V81.5H66V82ZM66 98V98.5H66.5V98H66ZM50 98H49.5V98.5H50V98ZM50 82.5H66V81.5H50V82.5ZM65.5 82V98H66.5V82H65.5ZM66 97.5H50V98.5H66V97.5ZM50.5 98V82H49.5V98H50.5Z" fill="#0A0C10"/>
<path d="M82 82H98V98H82V82Z" fill="#F06B97"/>
<path d="M82 82V81.5H81.5V82H82ZM98 82H98.5V81.5H98V82ZM98 98V98.5H98.5V98H98ZM82 98H81.5V98.5H82V98ZM82 82.5H98V81.5H82V82.5ZM97.5 82V98H98.5V82H97.5ZM98 97.5H82V98.5H98V97.5ZM82.5 98V82H81.5V98H82.5Z" fill="#0A0C10"/>
<path d="M34 114H50V130H34V114Z" fill="#F06B97"/>
<path d="M34 114V113.5H33.5V114H34ZM50 114H50.5V113.5H50V114ZM50 130V130.5H50.5V130H50ZM34 130H33.5V130.5H34V130ZM34 114.5H50V113.5H34V114.5ZM49.5 114V130H50.5V114H49.5ZM50 129.5H34V130.5H50V129.5ZM34.5 130V114H33.5V130H34.5Z" fill="#0A0C10"/>
<path d="M50 114H66V130H50V114Z" fill="#F06B97"/>
<path d="M50 114V113.5H49.5V114H50ZM66 114H66.5V113.5H66V114ZM66 130V130.5H66.5V130H66ZM50 130H49.5V130.5H50V130ZM50 114.5H66V113.5H50V114.5ZM65.5 114V130H66.5V114H65.5ZM66 129.5H50V130.5H66V129.5ZM50.5 130V114H49.5V130H50.5Z" fill="#0A0C10"/>
<rect x="1" y="1" width="146" height="146" rx="3" stroke="#0A0C10" stroke-width="2"/>
</svg>
