<svg width="274" height="376" viewBox="0 0 274 376" fill="none" xmlns="http://www.w3.org/2000/svg">
<path d="M35.7297 30.6365C24.1404 37.3468 17 49.7549 17 63.1842V159.216C17 172.6 24.0937 184.975 35.6229 191.701L127.748 245.451C133.582 248.855 140.79 248.85 146.619 245.437L238.424 191.698C249.926 184.965 257 172.605 257 159.24V63.2191C257 49.8023 249.873 37.4038 238.3 30.6887L206.478 12.2238C196.807 6.61254 184.887 6.61665 175.22 12.2345L156.171 23.3049L151.799 54.4023L170.892 76.6497L138.682 127.339V170.844L117.944 127.339L128.313 85.4873L107.665 63.1842L117.944 23.2803L98.766 12.1853C89.1162 6.60285 77.2341 6.60505 67.5866 12.191L35.7297 30.6365Z" stroke="#FF7979" stroke-width="16" stroke-linejoin="round"/>
<path d="M48.3407 351.846C43.2647 351.846 38.3767 351.188 33.6767 349.872C29.0394 348.493 25.1854 346.582 22.1147 344.138L26.8147 333.61C33.2694 338.122 40.4761 340.378 48.4347 340.378C52.6961 340.378 55.9547 339.72 58.2107 338.404C60.5294 337.025 61.6887 335.114 61.6887 332.67C61.6887 330.539 60.6234 328.879 58.4927 327.688C56.4247 326.435 52.7587 325.244 47.4947 324.116C41.6041 322.925 36.9041 321.484 33.3947 319.792C29.9481 318.037 27.4101 315.938 25.7807 313.494C24.2141 310.987 23.4307 307.885 23.4307 304.188C23.4307 300.177 24.5274 296.574 26.7207 293.378C28.9767 290.182 32.1101 287.707 36.1207 285.952C40.1314 284.135 44.7687 283.226 50.0327 283.226C54.7954 283.226 59.3701 283.915 63.7567 285.294C68.1434 286.673 71.6527 288.553 74.2847 290.934L69.5847 301.462C63.6941 296.95 57.2081 294.694 50.1267 294.694C46.3667 294.694 43.3587 295.446 41.1027 296.95C38.8467 298.454 37.7187 300.491 37.7187 303.06C37.7187 304.564 38.1261 305.817 38.9407 306.82C39.8181 307.823 41.2594 308.731 43.2647 309.546C45.2701 310.298 48.1214 311.05 51.8187 311.802C60.4041 313.682 66.5767 316.126 70.3367 319.134C74.1594 322.142 76.0707 326.247 76.0707 331.448C76.0707 337.715 73.6267 342.697 68.7387 346.394C63.8507 350.029 57.0514 351.846 48.3407 351.846ZM125.066 307.76L121.4 326.466H130.236V335.302H119.614L116.512 351H107.018L110.12 335.302H99.874L96.772 351H87.278L90.38 335.302H84.74V326.466H92.166L95.832 307.76H86.808V299.018H97.618L100.532 284.072H110.026L107.112 299.018H117.358L120.272 284.072H129.766L126.852 299.018H132.398V307.76H125.066ZM115.572 307.76H105.326L101.66 326.466H111.906L115.572 307.76ZM191.378 331.542C191.378 336.618 189.623 340.942 186.114 344.514C182.605 348.023 177.873 350.279 171.92 351.282V361.904H160.452V351.658C151.804 350.843 144.879 348.399 139.678 344.326L144.472 333.798C149.611 337.558 155.282 339.72 161.486 340.284V323.364C157.225 322.236 153.653 321.014 150.77 319.698C147.887 318.382 145.443 316.471 143.438 313.964C141.495 311.395 140.524 308.011 140.524 303.812C140.524 298.736 142.341 294.381 145.976 290.746C149.673 287.049 154.499 284.699 160.452 283.696V273.168H171.92V283.602C175.492 284.103 178.876 284.981 182.072 286.234C185.268 287.425 187.869 288.929 189.874 290.746L185.08 301.274C180.568 298.015 175.868 295.947 170.98 295.07V312.554C175.116 313.557 178.594 314.716 181.414 316.032C184.234 317.285 186.584 319.165 188.464 321.672C190.407 324.179 191.378 327.469 191.378 331.542ZM155.188 302.872C155.188 304.564 155.721 305.974 156.786 307.102C157.914 308.167 159.481 309.076 161.486 309.828V295.352C159.481 295.916 157.914 296.856 156.786 298.172C155.721 299.425 155.188 300.992 155.188 302.872ZM170.98 339.532C174.803 338.404 176.714 335.96 176.714 332.2C176.714 330.759 176.213 329.568 175.21 328.628C174.27 327.625 172.86 326.748 170.98 325.996V339.532ZM217.003 313.964V332.482C217.003 335.114 217.693 337.057 219.071 338.31C220.45 339.501 222.236 340.096 224.429 340.096C225.808 340.096 227.375 339.877 229.129 339.438V350.436C226.873 351.313 224.147 351.752 220.951 351.752C215.061 351.752 210.549 350.091 207.415 346.77C204.345 343.449 202.809 338.78 202.809 332.764V313.964H193.785V303.342H202.809V292.156L217.003 287.55V303.342H229.129V313.964H217.003ZM234.616 283.978L252.194 284.072L247.776 329.474H239.128L234.616 283.978ZM251.066 335.866V351H235.744V335.866H251.066Z" fill="#FF7979"/>
</svg>
