<svg width="64" height="64" fill="none" xmlns="http://www.w3.org/2000/svg"><mask id="a" style="mask-type:alpha" maskUnits="userSpaceOnUse" x="0" y="28" width="64" height="64"><path fill-rule="evenodd" clip-rule="evenodd" d="M34.044 38.741a4 4 0 0 1-4.013.004l-10.772-6.232a3.806 3.806 0 0 0-3.817 0l-8.671 5.021A5.57 5.57 0 0 0 4 42.356v26.141a5.57 5.57 0 0 0 2.755 4.813l25.076 14.631a.427.427 0 0 0 .433 0l24.988-14.628A5.57 5.57 0 0 0 60 68.503V42.367a5.57 5.57 0 0 0-2.766-4.82l-8.662-5.026a3.807 3.807 0 0 0-3.827.001l-10.7 6.22ZM0 42.356v26.141a9.57 9.57 0 0 0 4.74 8.268l25.075 14.631a4.427 4.427 0 0 0 4.47-.003l24.988-14.628A9.57 9.57 0 0 0 64 68.504V42.366a9.57 9.57 0 0 0-4.759-8.28L50.58 29.06a7.807 7.807 0 0 0-7.844.003l-10.7 6.22-10.773-6.233a7.806 7.806 0 0 0-7.824.002l-8.672 5.02A9.57 9.57 0 0 0 0 42.357Z" fill="#55D7CF"/></mask><g mask="url(#a)"><path d="m1.781 41.058-7.41-13.245L30.124-5.902c14.542 7.07 43.7 21.266 43.997 21.489.297.222-2.285 14.418-3.612 21.489L30.958 59.028 1.78 41.058Z" fill="url(#b)"/></g><path opacity=".3" d="M32 32.412a.79.79 0 0 1 .356-.618l27.94-16.188c.59-.341 1.069-.066 1.069.616v28.163c0 .454-.319 1.007-.712 1.235L32.356 62.036c-.197.114-.356.023-.356-.205v-29.42Z" fill="#7AFFF6"/><path fill-rule="evenodd" clip-rule="evenodd" d="M0 14.356v26.141a9.57 9.57 0 0 0 4.74 8.268l25.075 14.631a4.427 4.427 0 0 0 4.47-.003l2.756-1.614c.27-.104.54-.233.802-.388l16.832-9.935 4.598-2.691A9.57 9.57 0 0 0 64 40.504V14.366a9.57 9.57 0 0 0-4.759-8.28L50.58 1.06a7.806 7.806 0 0 0-7.844.003l-10.7 6.22L21.261 1.05a7.806 7.806 0 0 0-7.824.002l-8.672 5.02A9.57 9.57 0 0 0 0 14.357Zm37.593 10.025-.008-.014 19.591-11.262c1.324-.76 1.342-2.663.033-3.449l-5.072-3.044.01-.017-3.575-2.075a3.806 3.806 0 0 0-3.827.001l-10.7 6.22a4 4 0 0 1-4.014.004L19.259 4.513a3.806 3.806 0 0 0-3.817 0L6.771 9.534A5.57 5.57 0 0 0 4 14.356v26.141a5.57 5.57 0 0 0 2.755 4.813l21.91 12.784C29.36 58.25 30 57.97 30 56.913V31.756a5.2 5.2 0 0 1 2.608-4.508l4.985-2.867Zm15.056 23.626L35.418 58.094A1.202 1.202 0 0 1 34 56.913V31.756c0-.43.23-.826.602-1.04l23.595-13.568a1.2 1.2 0 0 1 1.798 1.04v22.057a6 6 0 0 1-2.95 5.167l-4.396 2.595Z" fill="url(#c)"/><defs><linearGradient id="b" x1="57.012" y1="23.714" x2=".2" y2="23.714" gradientUnits="userSpaceOnUse"><stop stop-color="#28726D"/><stop offset="1" stop-color="#7AF4BE"/></linearGradient><linearGradient id="c" x1="32" y1="0" x2="32" y2="64" gradientUnits="userSpaceOnUse"><stop stop-color="#79FFF7"/><stop offset="1" stop-color="#79EDA1"/></linearGradient></defs></svg>